<?xml version="1.0" encoding="utf-8"?>
<!-- Generator: Adobe Illustrator 19.2.1, SVG Export Plug-In . SVG Version: 6.00 Build 0)  -->
<svg version="1.1" id="Слой_1" xmlns="http://www.w3.org/2000/svg" xmlns:xlink="http://www.w3.org/1999/xlink" x="0px" y="0px"
	 viewBox="0 0 18 20" style="enable-background:new 0 0 18 20;" xml:space="preserve">
<style type="text/css">
	.st0{fill:#999999;}
</style>
<g>
	<path class="st0" d="M15,2h-1V1c0-0.3-0.1-0.5-0.3-0.7C13.5,0.1,13.3,0,13,0s-0.5,0.1-0.7,0.3C12.1,0.5,12,0.7,12,1v1H6V1
		c0-0.3-0.1-0.5-0.3-0.7C5.5,0.1,5.3,0,5,0S4.5,0.1,4.3,0.3C4.1,0.5,4,0.7,4,1v1H3C2.2,2,1.4,2.3,0.9,2.9C0.3,3.4,0,4.2,0,5v12
		c0,0.8,0.3,1.6,0.9,2.1C1.4,19.7,2.2,20,3,20h12c0.8,0,1.6-0.3,2.1-0.9c0.6-0.6,0.9-1.3,0.9-2.1V5c0-0.8-0.3-1.6-0.9-2.1
		C16.6,2.3,15.8,2,15,2z M5,15c-0.2,0-0.4-0.1-0.6-0.2c-0.2-0.1-0.3-0.3-0.4-0.4C4,14.2,4,14,4,13.8c0-0.2,0.1-0.4,0.3-0.5
		c0.1-0.1,0.3-0.2,0.5-0.3c0.2,0,0.4,0,0.6,0.1c0.2,0.1,0.3,0.2,0.4,0.4C5.9,13.6,6,13.8,6,14c0,0.3-0.1,0.5-0.3,0.7
		C5.5,14.9,5.3,15,5,15z M13,15H9c-0.3,0-0.5-0.1-0.7-0.3C8.1,14.5,8,14.3,8,14s0.1-0.5,0.3-0.7C8.5,13.1,8.7,13,9,13h4
		c0.3,0,0.5,0.1,0.7,0.3S14,13.7,14,14s-0.1,0.5-0.3,0.7S13.3,15,13,15z M16,9H2V5c0-0.3,0.1-0.5,0.3-0.7C2.5,4.1,2.7,4,3,4h1v1
		c0,0.3,0.1,0.5,0.3,0.7C4.5,5.9,4.7,6,5,6s0.5-0.1,0.7-0.3C5.9,5.5,6,5.3,6,5V4h6v1c0,0.3,0.1,0.5,0.3,0.7C12.5,5.9,12.7,6,13,6
		s0.5-0.1,0.7-0.3C13.9,5.5,14,5.3,14,5V4h1c0.3,0,0.5,0.1,0.7,0.3C15.9,4.5,16,4.7,16,5V9z"/>
</g>
</svg>
