<?xml version="1.0" encoding="utf-8"?>
<!-- Generator: Adobe Illustrator 19.2.1, SVG Export Plug-In . SVG Version: 6.00 Build 0)  -->
<svg version="1.1" id="Слой_1" xmlns="http://www.w3.org/2000/svg" xmlns:xlink="http://www.w3.org/1999/xlink" x="0px" y="0px"
	 viewBox="0 0 19 19" style="enable-background:new 0 0 19 19;" xml:space="preserve">
<style type="text/css">
	.st0{fill:#FFFFFF;}
</style>
<g>
	<path class="st0" d="M17.7,16.3l-3.4-3.4C15.4,11.5,16,9.8,16,8c0-1.6-0.5-3.1-1.3-4.4c-0.9-1.3-2.1-2.3-3.6-2.9
		C9.6,0,8-0.2,6.4,0.2c-1.6,0.3-3,1.1-4.1,2.2S0.5,4.9,0.2,6.4C-0.2,8,0,9.6,0.6,11.1c0.6,1.5,1.6,2.7,2.9,3.6C4.9,15.5,6.4,16,8,16
		c1.8,0,3.5-0.6,4.9-1.7l3.4,3.4c0.1,0.1,0.2,0.2,0.3,0.2C16.7,18,16.9,18,17,18s0.3,0,0.4-0.1c0.1-0.1,0.2-0.1,0.3-0.2
		c0.1-0.1,0.2-0.2,0.2-0.3C18,17.3,18,17.1,18,17s0-0.3-0.1-0.4C17.9,16.5,17.8,16.4,17.7,16.3z M2,8c0-1.2,0.4-2.3,1-3.3
		c0.7-1,1.6-1.8,2.7-2.2C6.8,2,8,1.9,9.2,2.1c1.2,0.2,2.2,0.8,3.1,1.6c0.8,0.8,1.4,1.9,1.6,3.1c0.2,1.2,0.1,2.4-0.3,3.5
		c-0.5,1.1-1.2,2-2.2,2.7S9.2,14,8,14c-1.6,0-3.1-0.6-4.2-1.8C2.6,11.1,2,9.6,2,8z"/>
</g>
</svg>
