<?xml version="1.0" encoding="utf-8"?>
<!-- Generator: Adobe Illustrator 19.2.1, SVG Export Plug-In . SVG Version: 6.00 Build 0)  -->
<svg version="1.1" id="Слой_1" xmlns="http://www.w3.org/2000/svg" xmlns:xlink="http://www.w3.org/1999/xlink" x="0px" y="0px"
	 viewBox="0 0 24 24" style="enable-background:new 0 0 24 24;" xml:space="preserve">
<style type="text/css">
	.st0{fill:#999999;}
</style>
<g>
	<path class="st0" d="M12,11c0.8,0,1.6-0.2,2.2-0.7c0.7-0.4,1.2-1.1,1.5-1.8C16,7.8,16.1,7,15.9,6.2c-0.2-0.8-0.5-1.5-1.1-2
		c-0.6-0.6-1.3-0.9-2-1.1C12,2.9,11.2,3,10.5,3.3C9.7,3.6,9.1,4.1,8.7,4.8C8.2,5.4,8,6.2,8,7c0,1.1,0.4,2.1,1.2,2.8
		C9.9,10.6,10.9,11,12,11z"/>
	<path class="st0" d="M18,21c0.3,0,0.5-0.1,0.7-0.3S19,20.3,19,20c0-1.9-0.7-3.6-2.1-4.9C15.6,13.7,13.9,13,12,13s-3.6,0.7-4.9,2.1
		C5.7,16.4,5,18.1,5,20c0,0.3,0.1,0.5,0.3,0.7C5.5,20.9,5.7,21,6,21H18z"/>
</g>
</svg>
