<?xml version="1.0" encoding="utf-8"?>
<!-- Generator: Adobe Illustrator 19.2.1, SVG Export Plug-In . SVG Version: 6.00 Build 0)  -->
<svg version="1.1" id="Слой_1" xmlns="http://www.w3.org/2000/svg" xmlns:xlink="http://www.w3.org/1999/xlink" x="0px" y="0px"
	 viewBox="0 0 16 20" style="enable-background:new 0 0 16 20;" xml:space="preserve">
<style type="text/css">
	.st0{fill:#999999;}
</style>
<g>
	<path class="st0" d="M8,0C5.9,0,3.9,0.8,2.4,2.3C0.9,3.8,0,5.8,0,7.9c0,5.5,7.1,11.6,7.3,11.8C7.5,19.9,7.8,20,8,20
		s0.5-0.1,0.6-0.2C9,19.5,16,13.4,16,7.9c0-2.1-0.9-4.1-2.4-5.6C12.1,0.8,10.1,0,8,0z M8,11c-0.7,0-1.4-0.2-1.9-0.6
		C5.5,10,5,9.5,4.8,8.8c-0.3-0.6-0.3-1.3-0.2-2C4.7,6.1,5,5.5,5.5,5c0.5-0.5,1.1-0.8,1.8-1C8,3.9,8.7,4,9.3,4.3
		C10,4.5,10.5,5,10.9,5.6c0.4,0.6,0.6,1.3,0.6,1.9c0,0.9-0.4,1.8-1,2.5C9.8,10.6,8.9,11,8,11z"/>
</g>
</svg>
